<svg width="16" height="16" viewBox="0 0 16 16" fill="none" xmlns="http://www.w3.org/2000/svg">
<path d="M3 6H2V5H1V4H2V3H3V1H4V3H5V4H6V5H5V6H4V8H3V6Z" fill="black"/>
<path d="M13 4H14V5H15V6H14V7H13V8H12V9H11V10H10V11H9V12H8V13H7V14H6V15H3V12H4V11H5V10H6V9H7V8H8V7H9V6H10V5H11V4H12V3H13V4Z" fill="black"/>
<path d="M4 6H5V5H6V4H5V3H4V1H3V3H2V4H1V5H2V6H3V8H4V6ZM5 9H2V7H1V6H0V3H1V2H2V0H5V2H6V3H7V6H6V7H5V9Z" fill="white"/>
<path d="M6 14H7V13H8V12H9V11H10V10H11V9H12V8H13V7H14V6H15V5H14V4H13V3H12V4H11V5H10V6H9V7H8V8H7V9H6V10H5V11H4V12H3V15H6V14ZM6 14H5V13H6V14ZM5 13H4V12H5V13ZM9 11H8V10H9V11ZM8 10H7V9H8V10ZM7 16H2V11H3V10H4V9H5V8H6V7H7V6H8V5H9V4H10V3H11V2H14V3H15V4H16V7H15V8H14V9H13V10H12V11H11V12H10V13H9V14H8V15H7V16Z" fill="white"/>
</svg>
